<svg width="22" height="23" viewBox="0 0 22 23" fill="none" xmlns="http://www.w3.org/2000/svg">
<g clip-path="url(#clip0_528_1755)">
<path d="M11.0003 7.83317C12.0087 7.83317 12.8337 7.00817 12.8337 5.99984C12.8337 4.9915 12.0087 4.1665 11.0003 4.1665C9.99199 4.1665 9.16699 4.9915 9.16699 5.99984C9.16699 7.00817 9.99199 7.83317 11.0003 7.83317ZM11.0003 9.6665C9.99199 9.6665 9.16699 10.4915 9.16699 11.4998C9.16699 12.5082 9.99199 13.3332 11.0003 13.3332C12.0087 13.3332 12.8337 12.5082 12.8337 11.4998C12.8337 10.4915 12.0087 9.6665 11.0003 9.6665ZM11.0003 15.1665C9.99199 15.1665 9.16699 15.9915 9.16699 16.9998C9.16699 18.0082 9.99199 18.8332 11.0003 18.8332C12.0087 18.8332 12.8337 18.0082 12.8337 16.9998C12.8337 15.9915 12.0087 15.1665 11.0003 15.1665Z" fill="#8A8A8A"/>
</g>
<defs>
<clipPath id="clip0_528_1755">
<rect width="22" height="22" fill="white" transform="translate(0 0.5)"/>
</clipPath>
</defs>
</svg>
