<svg width="1271" height="734" viewBox="0 0 1271 734" fill="none" xmlns="http://www.w3.org/2000/svg" xmlns:xlink="http://www.w3.org/1999/xlink">
<g id="Property 1=Default">
<path id="Vector" d="M1269 555.507L1266.37 558.64L1261.26 556.823L1265.55 552.375L1269 555.507Z" fill="#EEF5FF" stroke="#FCFCFC" stroke-width="2"/>
<path id="Vector_2" d="M1261.26 560.772L1257.96 562.904L1254.51 560.614L1257.96 558.64L1261.26 560.772Z" fill="#EEF5FF" stroke="#FCFCFC" stroke-width="2"/>
<path id="NZL" d="M1240.24 666.509L1237.6 674.932L1234.1 674.406L1230.25 682.513L1221.24 688.989L1217.63 688.436L1208.2 703.361L1187.55 721.786L1181.31 716.732L1182.52 710.362L1201.93 696.122L1212.47 682.513L1220.06 684.593L1222.9 679.986L1219.72 676.486L1220.82 672.748L1223.88 673.616L1227.51 663.772L1225.33 660.797L1225.88 653.111L1223.56 645.451L1224.98 644.451L1230.04 651.927L1229.7 660.034L1232.57 665.957L1235.73 667.931L1236.84 665.088L1240.24 666.509Z" fill="#EEF5FF" stroke="#FCFCFC" stroke-width="2"/>
<path id="Vector_4" d="M1217.79 545.321L1223.56 552.375L1219.45 555.508L1214.5 547.453L1217.79 545.321Z" fill="#EEF5FF" stroke="#FCFCFC" stroke-width="2"/>
<path id="Vector_5" d="M1206.94 570.485L1214.5 579.54L1210.71 580.514L1204.31 571.801L1206.94 570.485Z" fill="#EEF5FF" stroke="#FCFCFC" stroke-width="2"/>
<path id="Vector_6" d="M1201.62 528.079L1198.54 529.527L1194.37 526.79L1192.93 524.263H1197.32L1201.62 528.079Z" fill="#EEF5FF" stroke="#FCFCFC" stroke-width="2"/>
<path id="Vector_7" d="M1195.56 517.788L1193.82 519.867L1188.97 515.682L1190.19 513.602L1195.56 517.788Z" fill="#EEF5FF" stroke="#FCFCFC" stroke-width="2"/>
<path id="Vector_8" d="M1182.18 508.891L1185.58 512.997L1183.6 514.918L1180.55 511.102L1182.18 508.891Z" fill="#EEF5FF" stroke="#FCFCFC" stroke-width="2"/>
<path id="Vector_9" d="M1172.09 501.336L1175.15 505.706L1172.75 508.127L1169.01 502.652L1169.46 498.915L1172.09 501.336Z" fill="#EEF5FF" stroke="#FCFCFC" stroke-width="2"/>
<path id="Vector_10" d="M1158.79 522.684L1160.1 526.79L1146.28 524.816L1139.93 516.261L1144.62 512.155L1158.79 522.684Z" fill="#FCC33C" stroke="#FCFCFC" stroke-width="2"/>
<path id="AUS" d="M1148.65 569.827L1160.1 595.491L1153.76 626.42L1133.84 656.507L1115.72 662.113L1098.44 652.9L1094.8 628.236L1086.59 637.449L1079.18 623.393L1070.62 620.155L1040.49 627.736L1036.38 631.5L1013.83 635.449L1007.06 626.578L1011.2 623.393L1009.69 578.698L1029.45 567.01L1041.49 565.879L1062.38 541.846L1067.83 540.872L1073.57 544.163L1081 533.949L1103.21 534.107L1100.41 545.136L1118.2 558.298L1125.1 530.501L1128.07 532.633L1131.05 543.162L1136.32 543.505L1139.93 563.904L1148.65 569.827Z" fill="#EEF5FF" stroke="#FCFCFC" stroke-width="2"/>
<path id="Vector_11" d="M1146.35 507.89L1144.62 512.155L1139.93 516.261L1135.16 515.445L1128.42 520.709L1120.17 520.209L1121.91 495.124L1127.41 496.624L1146.35 507.89Z" fill="#FCC33C" stroke="#FCFCFC" stroke-width="2"/>
<path id="AUS" d="M1123.31 675.275L1116.88 691.41H1111.77L1106.66 680.381L1111.29 672.8L1123.31 675.275Z" fill="#EEF5FF" stroke="#FCFCFC" stroke-width="2"/>
<path id="Vector_13" d="M1121.91 495.124L1120.17 520.209L1114.24 513.049L1110.45 505.495L1102.39 504.337L1097.54 500.889H1091.54L1092.59 494.887L1085.03 493.992L1083.71 489.701L1092.59 487.727L1092.75 490.781L1097.7 492.781L1097.78 497.177L1101.23 498.019L1109.13 491.676L1121.91 495.124Z" fill="#FCC33C" stroke="#FCFCFC" stroke-width="2"/>
<g id="JPN">
<path id="JPN" d="M1108.11 280.228L1101.28 289.677L1094.49 286.808H1093.17L1094.49 289.677L1089.43 288.993V283.939L1093.83 280.333L1089.43 271.015H1090.75H1091.85L1108.11 280.228Z" fill="#EEF5FF" stroke="#FCFCFC" stroke-width="2"/>
<path id="JPN" d="M1102.6 316.079L1103.92 326.503L1085.93 339.006L1074.07 335.768L1069.88 332.794L1072.97 328.477L1083.74 326.713L1093.62 312.683L1092.51 296.679L1096.7 294.889H1096.73L1097.12 294.705L1102.6 305.655V316.079Z" fill="#EEF5FF" stroke="#FCFCFC" stroke-width="2"/>
<path id="JPN" d="M1074.07 335.768L1073.86 345.797L1069.67 351.956L1064.64 340.111L1067.62 335.978L1069.88 332.793L1074.07 335.768Z" fill="#EEF5FF" stroke="#FCFCFC" stroke-width="2"/>
</g>
<path id="Vector_14" d="M1066.33 447.006L1067.41 456.719L1063.04 462.3L1057.11 461.168L1056.37 455.824L1053 455.482L1050.02 459.773L1048.23 458.983L1047.65 455.64L1053.24 450.876L1060.24 448.402L1062.64 446.19L1066.33 447.006Z" fill="#F54242" stroke="#FCFCFC" stroke-width="2"/>
<path id="Vector_15" d="M1060.9 431.292L1063.04 439.347L1059.74 438.873L1058.93 443.795L1054.98 445.769L1052.5 443.98L1054.98 440.347L1053.82 434.767L1049.87 432.134L1043.28 434.767L1038.51 425.554L1041.15 411.392L1045.76 409.26L1048.71 415.841L1046.57 424.396L1060.9 431.292Z" fill="#FCC33C" stroke="#FCFCFC" stroke-width="2"/>
<g id="CHN">
<path id="CHN" d="M1062.18 258.928L1058.38 278.512L1054.77 280.486L1054.06 289.884L1048 293.806L1046.45 298.491L1042.24 298.096L1036.76 307.414L1029.51 313.442L1026.77 313.547L1027.12 304.44L1024.48 302.571L1012.84 315.206L1020.64 322.971L1024.35 319.259L1025.53 319.496L1031.7 320.786L1034.23 324.182L1027.54 326.051L1022.48 335.474L1036.1 353.9L1038.07 363.902L1031.38 374.3V382.539L1018 393.489L1010.63 392.172L997.139 399.543L992.423 399.832L986.391 392.725L978.594 389.777L977.383 392.067L969.059 393.541L967.952 393.726L965.529 398.648L958.39 392.304L950.04 386.039L953.57 378.59L949.408 369.93L941.611 364.429L927.018 371.246L919.984 369.483L910.001 372.01L905.944 369.377L901.098 370.035L893.406 364.113L878.391 358.638L875.204 351.241L870.146 340.317L857.081 330.446L851.602 328.893L844.016 332.842L842.33 324.945H839.643L838.221 330.446L830.423 330.999L829.87 330.446L831.082 325.05L828 320.681L834.138 318.154L836.903 313.653H841.619L842.33 310.152L836.06 307.888L837.667 306.309L846.544 302.676L864.562 301.702L870.7 304.887L871.806 299.412L868.381 291.068L876.073 290.252L875.862 280.644L886.162 278.46L885.293 274.169L888.322 269.036L903.784 275.275L906.102 287.067L924.041 290.673L929.81 300.886L949.171 297.754L962.394 303.361L975.907 298.412L985.285 289.357L980.333 285.409L981.334 282.303L988.42 284.093L1008.99 271.932L1003.57 263.535L992.423 266.509L994.663 255.48L995.664 254.98L1001.09 252.848L1000.09 242.635L1002.25 239.187L998.956 231.948L1008.99 228.342L1019.69 231.448L1031.22 249.874L1042.92 254.98L1045.05 259.929L1051.14 261.245L1055.59 255.296L1062.18 258.928Z" fill="#5398F5" stroke="#FCFCFC" stroke-width="2"/>
<a href="nation.html">
    <animate attributeName="fill" values="#5398F5; #d3d3d3; #5398F5" dur="0.5s" repeatCount="indefinite"/>
  </a>
</g>
<path id="KOR" d="M1059.59 320.264L1061.88 331.873L1059.14 334.294L1055.19 333.426L1051.02 335.373L1049.15 326.713L1045.44 318.395L1053.03 313.763L1059.59 320.264Z" fill="#EEF5FF" stroke="#FCFCFC" stroke-width="2"/>
<path id="Vector_16" d="M1060.4 478.936L1061.64 481.647L1055.05 483.779L1052.89 483.489L1045.18 482.463L1043.44 484.858L1045.44 491.096L1052.58 485.832L1054.08 489.201L1048.47 492.781L1054.16 499.73L1051.68 506.653L1046.91 502.284L1043.04 499.993L1041.65 506.653H1039.25L1038.75 499.414L1038.27 488.148L1043.94 480.12L1054.55 481.305L1060.4 478.936Z" fill="#5398F5" stroke="#FCFCFC" stroke-width="2"/>
<path id="PRK" d="M1053.76 292.283L1054.76 300.522L1047.73 308.524L1053.03 313.763L1045.44 318.395L1042.02 319.369L1036.64 307.208L1042.12 297.89L1046.34 298.285L1047.89 293.6L1053.95 289.677L1053.76 292.283Z" fill="#EEF5FF" stroke="#FCFCFC" stroke-width="2"/>
<path id="Vector_17" d="M1031.11 466.274L1033.35 483.674L1022.81 500.888L1004.16 496.94L1000.63 487.727L1016.02 479.936L1031.11 466.274Z" fill="#5398F5" stroke="#FCFCFC" stroke-width="2"/>
<path id="Vector_18" d="M1030.16 458.983L1031.11 466.275L1016.02 479.936L1000.63 487.727L998.657 482.568L1003.4 477.514L1007.35 479.173L1014.46 471.618L1030.16 458.983Z" fill="#5398F5" stroke="#FCFCFC" stroke-width="2"/>
<path id="Vector_19" d="M1024.58 517.445L1023.92 520.525L1003.06 517.551L986.698 511.865L991.545 507.574L1003.72 512.734L1009.19 509.549L1013.15 512.734L1024.58 517.445Z" fill="#5398F5" stroke="#FCFCFC" stroke-width="2"/>
<path id="MNG" d="M1003.45 263.329L1008.88 271.726L988.305 283.887L981.219 282.097L980.218 285.203L985.171 289.151L975.793 298.206L962.28 303.155L949.056 297.548L929.695 300.68L923.927 290.467L905.988 286.861L903.67 275.069L888.208 268.83L889.235 267.067L902.353 256.248L913.732 260.197L925.402 260.039L923.268 252.8L925.402 247.693L937.44 250.51L940.706 256.406L955.536 255.774L965.573 260.697L983.695 254.274L994.548 255.274L992.309 266.303L1003.45 263.329Z" fill="#5398F5" stroke="#FCFCFC" stroke-width="2"/>
<path id="Vector_21" d="M996.155 420.816L1000.32 433.661L996.471 443.532L983.089 451.876L983.959 443.427L992.309 435.293L990.966 426.396L990.123 420.816L985.355 417.789L987.041 415.13L996.155 420.816Z" fill="#5398F5" stroke="#FCFCFC" stroke-width="2"/>
<path id="Vector_22" d="M986.277 392.519L992.309 399.626L988.674 399.863L984.064 406.444L987.041 415.13L985.355 417.789L983.406 416.552L981.983 412.603L968.944 393.335L977.268 391.861L978.48 389.571L986.277 392.519Z" fill="#5398F5" stroke="#FCFCFC" stroke-width="2"/>
<path id="Vector_23" d="M990.966 426.396L992.309 435.293L983.959 443.427L983.089 451.876L976.267 438.373L973.422 437.083V430.687L975.292 427.502L982.326 426.975L987.041 429.923L990.966 426.396Z" fill="#5398F5" stroke="#FCFCFC" stroke-width="2"/>
<path id="Vector_24" d="M990.123 420.816L990.966 426.396L987.041 429.923L982.326 426.975L983.748 422.685L980.508 419.605L983.406 416.552L985.355 417.789L990.123 420.816Z" fill="#5398F5" stroke="#FCFCFC" stroke-width="2"/>
<path id="Vector_25" d="M978.585 483.332L989.016 503.205L982.194 508.891L968.259 496.835L960.699 480.936L947.291 466.775L947.95 462.932L954.43 465.564L978.585 483.332Z" fill="#5398F5" stroke="#FCFCFC" stroke-width="2"/>
<path id="Vector_26" d="M983.748 422.685L982.326 426.975L975.292 427.502L973.422 430.687V437.083L964.756 433.214L952.56 411.945L955.431 405.681L961.252 403.285L967.285 413.577L973.422 412.919L980.508 419.605L983.748 422.685Z" fill="#5398F5" stroke="#FCFCFC" stroke-width="2"/>
<path id="Vector_27" d="M981.983 412.603L983.406 416.552L980.508 419.605L973.422 412.919L967.285 413.577L961.253 403.285L965.414 398.442L967.838 393.519L968.944 393.335L981.983 412.603Z" fill="#5398F5" stroke="#FCFCFC" stroke-width="2"/>
<path id="Vector_28" d="M978.269 469.196L982.326 478.199L980.35 480.383L971.446 474.777L965.967 467.538V459.983L973.422 460.062L978.032 463.379L978.269 469.196Z" fill="#5398F5" stroke="#FCFCFC" stroke-width="2"/>
<path id="Vector_29" d="M973.422 460.062L965.967 459.983L957.301 452.508V443.637L959.382 444.401L959.988 444.637L959.935 444.743L964.967 449.112L966.415 455.035L973.422 460.062Z" fill="#5398F5" stroke="#FCFCFC" stroke-width="2"/>
<path id="IND" d="M965.414 398.442L961.253 403.285L955.431 405.68L952.56 411.945L964.756 433.214L959.988 444.637L959.382 444.401L957.301 443.637L958.934 436.083L953.245 418.42L949.715 415.235L946.765 420.158L941.049 422.027L932.698 405.259L926.455 394.73L911.309 398.442L911.862 402.39L888.366 423.132L887.496 443.084L881.332 451.981L876.407 452.85L859.732 415.893L855.333 395.388L851.935 402.179L846.43 402.495L837.632 390.282L849.169 387.255L842.215 375.541L846.009 371.803L850.065 373.541L862.13 353.035L862.999 352.614L868.162 349.482L875.089 351.035L878.277 358.432L893.291 363.907L900.983 369.829L905.83 369.171L909.887 371.803L919.87 369.276L926.903 371.04L941.496 364.223L949.293 369.724L953.455 378.384L949.926 385.833L958.276 392.098L965.414 398.442Z" fill="#5398F5" stroke="#FCFCFC" stroke-width="2"/>
<path id="Vector_31" d="M894.793 450.876L898.402 460.589L888.524 462.932L885.231 454.245L888.524 447.928L894.793 450.876Z" fill="#5398F5" stroke="#FCFCFC" stroke-width="2"/>
<path id="Vector_32" d="M886.047 263.803L889.235 267.067L888.207 268.83L885.178 273.963L886.047 278.254L875.748 280.438L875.959 290.046L868.267 290.862L871.691 299.206L870.585 304.681L864.447 301.496L846.43 302.47L837.553 306.103L835.946 307.682L830.967 312.578L822.828 311.815L815.584 300.628L803.967 300.733L798.146 298.417V289.441L791.007 290.967V293.942L781.235 295.468L784.975 313.447L776.52 308.84L771.067 310.946L770.277 308.419L759.503 298.864L769.381 292.941L767.853 286.15H760.609L755.315 290.046L744.462 279.675L746.332 271.436L750.837 272.989L752.812 266.724L759.187 261.776L766.088 262.355L772.911 266.83L783.447 264.303L789.69 267.488L794.59 263.434L790.138 258.617L790.243 248.509L815.584 237.559L835.34 247.193L842.215 240.612L860.918 259.723L873.114 257.959L881.991 265.408L886.047 263.803Z" fill="#EEF5FF" stroke="#FCFCFC" stroke-width="2"/>
<path id="Vector_33" d="M870.032 340.111L875.089 351.035L868.162 349.482L862.999 352.614L862.129 353.035L847.589 335.768L856.967 330.24L870.032 340.111Z" fill="#F54242" stroke="#FCFCFC" stroke-width="2"/>
<path id="Vector_34" d="M847.589 335.768L862.129 353.036L850.065 373.541L846.008 371.803L842.215 375.541L849.169 387.255L837.632 390.282H837.606L833.391 384.412L816.48 386.07L813.292 385.438L813.398 384.859L818.877 376.963L810.21 366.197H825.805L837.974 355.457L844.138 345.797L844.349 337.69L847.589 335.768Z" fill="#F54242" stroke="#FCFCFC" stroke-width="2"/>
<path id="Vector_35" d="M856.967 330.24L847.589 335.768L844.349 337.69L844.138 345.797L837.974 355.457L825.805 366.197H810.21L806.733 339.216L816.848 337.242L820.194 331.662L824.804 330.24H829.756L830.309 330.793L838.106 330.24L839.528 324.739H842.215L843.901 332.636L851.487 328.687L856.967 330.24Z" fill="#242424" stroke="#FCFCFC" stroke-width="2"/>
<path id="Vector_36" d="M842.215 309.946L841.504 313.447H836.789L834.023 317.948L827.885 320.475L830.967 324.844L829.756 330.24H824.803V327.608L807.919 319.053L806.154 312.578L793.536 307.208L787.609 309.051V313.447H784.975L781.235 295.469L791.007 293.942V298.417H798.146L803.967 300.733L815.584 300.628L822.828 311.815L830.967 312.578L835.946 307.682L842.215 309.946Z" fill="#EEF5FF" stroke="#FCFCFC" stroke-width="2"/>
<path id="Vector_37" d="M824.804 327.608V330.24L820.194 331.662L816.848 337.242L806.733 339.216L806.681 338.742L806.654 338.558L806.496 335.768L790.454 329.135L778.205 333.741L771.067 310.946L776.52 308.84L784.975 313.447H787.609V309.051L793.536 307.208L806.154 312.578L807.919 319.053L824.804 327.608Z" fill="#5398F5" stroke="#FCFCFC" stroke-width="2"/>
<path id="Vector_38" d="M810.21 366.197L818.877 376.963L813.398 384.859L813.292 385.438L796.829 382.122L794.3 375.541L785.081 378.384L765.114 364.223L763.691 365.223L758.897 355.01L753.023 352.325L749.467 347.955L751.337 341.322L744.699 333.741L741.933 323.633L744.462 322.396L747.939 325.265V325.292L749.704 326.739L760.056 325.002L759.74 328.056L767.853 335.768H778.838L778.205 333.741L790.454 329.135L806.496 335.768L806.654 338.558L806.681 338.742L806.707 339.216H806.733L810.21 366.197Z" fill="#FCC33C" stroke="#FCFCFC" stroke-width="2"/>
<path id="Vector_39" d="M807.471 396.362L797.277 413.709L784.422 420.052L779.075 408.76L789.374 404.812V395.704L792.667 384.859L793.931 385.833L807.471 396.362Z" fill="#EEF5FF" stroke="#FCFCFC" stroke-width="2"/>
<path id="Vector_40" d="M792.667 384.859L789.374 395.704L778.074 394.493L775.756 387.255L782.552 388.15L792.667 384.859Z" fill="#EEF5FF" stroke="#FCFCFC" stroke-width="2"/>
<path id="Vector_41" d="M789.374 395.704V404.812L779.075 408.76L777.942 409.208L764.666 413.261L759.398 420.395L747.439 414.893L746.675 418.842L744.357 421.158L737.666 410.287L730.87 405.681L726.708 390.545L722.625 389.677L712.747 373.12L711.93 368.066L712.326 368.013L715.118 364.67L711.93 358.8L713.537 353.167L713.643 353.036L713.801 353.167L717.857 356.379L725.285 351.062L726.813 355.01L750.284 370.382L754.287 369.935L754.709 369.882L754.893 371.146L762.085 370.461L775.756 387.255L778.074 394.494L789.374 395.704Z" fill="#FCC33C" stroke="#FCFCFC" stroke-width="2"/>
<path id="Vector_42" d="M779.075 408.76L784.422 420.053L779.496 424.448L760.056 432.898L748.545 433.214L744.357 421.158L746.675 418.842L747.439 414.893L759.398 420.395L764.666 413.261L777.942 409.208L779.075 408.76Z" fill="#242424" stroke="#FCFCFC" stroke-width="2"/>
<path id="Vector_43" d="M775.966 439.031L774.886 452.745L758.739 475.013L754.366 476.751L742.644 490.781L738.641 485.753L740.274 480.831L739.378 472.829L741.933 469.381L749.836 464.142L754.103 465.511L765.298 453.666L748.914 450.218L745.226 442.084L745.147 441.742L747.439 441.268L753.049 445.822L759.635 441.452L775.966 439.031Z" fill="#242424" stroke="#FCFCFC" stroke-width="2"/>
<path id="Vector_44" d="M767.853 530.291L775.308 539.714L759.74 583.357H746.78L744.146 572.617L749.414 564.51L746.122 554.639L749.204 546.505H756.447L767.853 530.291Z" fill="#FCC33C" stroke="#FCFCFC" stroke-width="2"/>
<path id="Vector_45" d="M765.298 453.666L754.103 465.511L749.836 464.143L741.933 469.381L736.665 467.775L730.738 470.776L716.593 462.405L709.349 452.14L720.992 430.582V429.739L729.764 427.107L741.67 435.662L742.671 436.241L741.67 441.663L743.487 442.084L745.147 441.742L745.226 442.084L748.914 450.218L765.298 453.666Z" fill="#F54242" stroke="#FCFCFC" stroke-width="2"/>
<path id="Vector_46" d="M758.897 355.01L763.691 365.223L761.584 366.697L757.053 364.459L754.287 367.197L754.709 369.882L754.287 369.935L750.283 370.382L726.813 355.01L725.285 351.061L733.109 345.481L732.345 338.242L735.69 336.373V334.505V334.241L744.699 333.741L751.337 341.322L749.467 347.955L753.023 352.325L758.897 355.01Z" fill="#242424" stroke="#FCFCFC" stroke-width="2"/>
<path id="Vector_47" d="M762.084 370.461L754.893 371.145L754.709 369.882L754.287 367.197L757.053 364.459L761.584 366.697L759.951 367.855L762.084 370.461Z" fill="#5398F5" stroke="#FCFCFC" stroke-width="2"/>
<path id="Vector_48" d="M757.396 311.604L761.057 315.816L760.056 325.002L749.704 326.739L747.939 325.292V325.265L746.859 315.816L757.396 311.604Z" fill="#5398F5" stroke="#FCFCFC" stroke-width="2"/>
<path id="Vector_49" d="M746.859 315.816L747.939 325.265L744.462 322.396L741.933 323.633L738.562 317.869L739.8 316L741.011 314.157L746.859 315.816Z" fill="#5398F5" stroke="#FCFCFC" stroke-width="2"/>
<path id="Vector_50" d="M747.439 441.268L745.147 441.742L743.487 442.084L741.67 441.663L742.671 436.241L745.674 434.767L745.911 440.031L747.439 441.268Z" fill="#FCC33C" stroke="#FCFCFC" stroke-width="2"/>
<path id="Vector_51" d="M745.674 434.767L742.671 436.241L741.67 435.662L729.764 427.107L720.992 429.739V421.158L729.764 415.788L732.187 425.975L745.674 434.767Z" fill="#FCC33C" stroke="#FCFCFC" stroke-width="2"/>
<path id="Vector_52" d="M741.933 323.633L744.699 333.741L735.69 334.241V334.505L727.235 335.768L726.418 337.584L722.678 335.768L717.04 337.374L713.537 341.533V336.821L705.845 340.322L693.439 340.427L683.007 337.69L678.081 330.24L675.974 322.659L674.025 317.948H676.317L677.555 313.341L682.059 310.683L685.088 315.816H695.203L701.13 312.104L710.982 312.894L715.118 315.816H727.682L730.764 310.499L739.8 316L738.561 317.869L741.933 323.633Z" fill="#5398F5" stroke="#FCFCFC" stroke-width="2"/>
<path id="Vector_53" d="M738.64 485.753L742.644 490.781L732.608 502.784L724.311 494.624L712.615 487.648L714.67 485.411L712.036 483.121L717.225 476.698L712.852 467.775L716.593 462.405L730.738 470.776L736.665 467.775L741.933 469.381L739.378 472.829L740.274 480.831L738.64 485.753Z" fill="#FCC33C" stroke="#FCFCFC" stroke-width="2"/>
<path id="Vector_54" d="M736.797 524.263V545.189L719.095 557.218L715.012 551.217L717.857 546.295L717.541 543.004L719.122 541.688L715.486 537.74L713.695 532.37L714.67 531.159V528.79L718.674 528.185L720.702 529.685L736.797 524.263Z" fill="#FCC33C" stroke="#FCFCFC" stroke-width="2"/>
<path id="Vector_55" d="M729.974 505.943L736.797 524.263L720.702 529.685L718.674 528.185L714.67 528.79L713.643 528.132L713.089 521.131L710.666 521.499L708.005 520.63L700.024 517.498L698.865 510.602L695.915 508.627V502.705L695.757 502.02L700.682 497.941L697.548 493.308L700.682 492.571L699.128 488.886L698.865 488.833L703.554 488.228H703.712L703.975 494.624L711.14 494.15L709.402 491.097L712.615 487.648L724.311 494.624L732.608 502.784L729.974 505.943Z" fill="#FCC33C" stroke="#FCFCFC" stroke-width="2"/>
<path id="Vector_56" d="M735.69 334.504V336.373L732.345 338.242L733.109 345.481L725.285 351.061L717.857 356.378L713.8 353.167L713.642 353.035L717.04 348.429L713.537 345.481V341.532L717.04 337.374L722.678 335.768L726.418 337.584L727.235 335.768L735.69 334.504Z" fill="#242424" stroke="#FCFCFC" stroke-width="2"/>
<path id="Vector_57" d="M686.142 464.222L674.025 452.14L668.414 440.663L665.569 434.53L669.626 423.448L672.708 422.685L672.365 408.55L676.211 406.444L676.027 399.337H720.649L721.097 399.021L721.756 399.995L724.706 412.261L729.764 415.788L720.992 421.158V429.739V430.582L709.349 452.14L716.593 462.405L712.852 467.775L700.577 470.065L695.414 466.354L689.382 467.433L686.142 464.222Z" fill="#242424" stroke="#FCFCFC" stroke-width="2"/>
<path id="Vector_58" d="M720.518 274.437L721.835 277.148L719.938 278.543L720.597 282.176L715.908 286.782L715.882 286.887L712.747 286.15L705.74 292.494L707.479 296.442L702.658 300.97L698.338 296.89L700.024 293.6L690.805 290.757L686.774 297.811L682.402 295.416L682.217 295.126L682.56 294.916L684.14 291.547L687.512 291.31L686.853 289.099L683.245 286.782L682.665 283.15L679.03 282.65L675.579 281.175L673.34 283.966L667.097 285.598L664.226 283.571L660.433 284.387L659.037 282.65L664.226 271.357L662.408 265.698L669.81 264.882L685.036 266.382L689.066 262.355L698.628 262.829L705.74 272.463L720.518 274.437Z" fill="#242424" stroke="#FCFCFC" stroke-width="2"/>
<path id="Vector_59" d="M705.503 375.857L721.097 399.021L720.649 399.337H676.027L674.973 357.221V357.194L689.277 362.038L693.333 359.405L705.24 360.142L707.479 360.274L711.298 364.17L711.93 368.066L712.747 373.119L709.691 373.777L704.844 366.644L703.106 367.513L705.503 375.857Z" fill="#FCC33C" stroke="#FCFCFC" stroke-width="2"/>
<path id="Vector_60" d="M715.486 537.74L719.121 541.688L717.541 543.004L717.857 546.295L715.012 551.217L712.22 548.216L711.166 545.426L712.694 542.504L711.535 540.688L708.532 540.32L707.347 538.319V530.291L708.822 526.474L708.005 520.63L710.666 521.499L712.088 529.738L710.666 531.817L713.089 538.661L714.564 539.661L715.486 537.74Z" fill="#5398F5" stroke="#FCFCFC" stroke-width="2"/>
<path id="Vector_61" d="M715.012 551.217L719.095 557.219L712.747 561.535L705.556 561.43L706.346 549.69L712.22 548.216L715.012 551.217Z" fill="#FCC33C" stroke="#FCFCFC" stroke-width="2"/>
<path id="Vector_62" d="M712.852 467.775L717.225 476.698L712.036 483.121L703.554 484.49L703.712 488.227H703.554L698.865 488.833L694.914 488.227L698.944 479.91L700.577 470.065L712.852 467.775Z" fill="#FCC33C" stroke="#FCFCFC" stroke-width="2"/>
<path id="Vector_63" d="M713.695 532.37L715.486 537.74L714.564 539.661L713.089 538.661L710.666 531.817L712.088 529.738L710.666 521.499L713.089 521.13L713.642 528.132L714.67 528.79V531.159L713.695 532.37Z" fill="#5398F5" stroke="#FCFCFC" stroke-width="2"/>
<path id="Vector_64" d="M711.93 358.8L715.118 364.67L712.325 368.013L711.93 368.066L711.298 364.17L707.479 360.274L710.982 351.693L713.537 353.167L711.93 358.8Z" fill="#EEF5FF" stroke="#FCFCFC" stroke-width="2"/>
<path id="Vector_65" d="M714.67 485.411L712.615 487.649L709.401 491.097L711.14 494.15L703.975 494.624L703.712 488.228L703.554 484.49L712.035 483.121L714.67 485.411Z" fill="#FCC33C" stroke="#FCFCFC" stroke-width="2"/>
<path id="Vector_66" d="M712.747 561.535L714.512 579.303L702.447 584.673L699.26 583.752L700.788 580.672L699.471 571.406L703.817 567.011L703.87 563.457L705.556 561.43L712.747 561.535Z" fill="#FCC33C" stroke="#FCFCFC" stroke-width="2"/>
<path id="Vector_67" d="M711.535 540.688L712.694 542.504L711.167 545.426L712.22 548.216L706.346 549.69L698.444 546.795L696.652 544.557V542.109L707.347 538.319L708.532 540.319L711.535 540.688Z" fill="#FCC33C" stroke="#FCFCFC" stroke-width="2"/>
<path id="Vector_68" d="M708.005 520.63L708.822 526.474L707.347 530.291V538.319L696.652 542.109L692.28 536.74L695.915 533.291L691.305 517.84L696.942 515.708L700.024 517.498L708.005 520.63Z" fill="#5398F5" stroke="#FCFCFC" stroke-width="2"/>
<path id="Vector_69" d="M706.346 549.69L705.556 561.43L703.87 563.457L703.817 567.01L699.471 571.406L691.779 570.38L689.777 571.38L677.713 553.691H683.719L690.804 545.873L696.652 544.557L698.444 546.795L706.346 549.69Z" fill="#5398F5" stroke="#FCFCFC" stroke-width="2"/>
<path id="Vector_70" d="M702.448 584.673L703.528 590.595L696.942 589.279L696.626 586.384L699.26 583.751L702.448 584.673Z" fill="#5398F5" stroke="#FCFCFC" stroke-width="2"/>
<path id="Vector_71" d="M703.527 590.595L681.69 617.365L653.479 623.393L648.21 617.47L648.658 612.101L640.808 593.807L647.552 597.281L656.007 594.781L656.481 582.435L659.537 587.91L664.305 587.647L667.65 582.804L676.58 584.673L684.878 573.775L689.777 571.38L691.779 570.38L699.471 571.406L700.788 580.672L699.26 583.751L696.626 586.384L696.942 589.279L703.527 590.595ZM690.357 601.414V597.518L688.223 596.202L684.219 597.018L681.19 600.256L685.036 605.309L690.357 601.414Z" fill="url(#pattern0_257_6460)" stroke="#FCFCFC" stroke-width="2"/>
<g id="RUS">
<path id="RUS" d="M1166.72 81.2567L1156.39 84.8892L1154.2 81.7041L1147.62 84.2311L1142.22 79.2825L1140.9 84.547L1145.3 87.6267L1147.72 98.8137L1145.41 101.893L1138.27 100.13L1138.61 105.289L1142.56 104.078L1160.45 114.607L1162.87 122.609H1155.07L1149.04 128.637L1145.41 149.8L1142.67 150.695L1137.08 146.299L1124.23 156.276L1126.1 171.858L1134.11 181.519L1136.32 211.026L1133.55 227.688L1130.6 227.241L1110.08 189.179L1113.24 177.123L1114.9 154.959L1119.72 149.59L1117.09 132.375L1110.5 133.901L1112.37 140.824L1110.19 150.695L1105.89 149.168L1103.6 144.325L1093.49 148.932L1095.91 169.121L1088.46 172.306L1086.14 170.095L1078.79 167.805L1054.76 179.097L1052.79 192.258L1044.44 212.763L1050.15 214.632L1053.34 218.686L1060.69 214.632L1069.91 220.45L1078.79 250.273L1075.39 270.357L1065.83 288.993L1053.76 292.283L1053.95 289.678L1054.66 280.28L1058.27 278.306L1062.06 258.722L1055.48 255.09L1051.02 261.039L1044.94 259.723L1042.81 254.774L1031.11 249.667L1019.57 231.242L1008.88 228.136L998.842 231.742L1002.13 238.981L999.974 242.429L1000.98 252.642L995.549 254.774L994.548 255.274L983.695 254.274L965.572 260.697L955.536 255.774L940.706 256.406L937.44 250.51L925.402 247.693L923.268 252.8L925.402 260.039L913.732 260.196L902.353 256.248L889.235 267.067L886.047 263.803L881.991 265.408L873.114 257.959L860.918 259.723L842.215 240.613L835.34 247.193L815.584 237.559L790.243 248.509L790.138 258.617L794.59 263.434L789.69 267.488L783.447 264.303L772.911 266.83L766.088 262.355L759.187 261.776L752.812 266.724L750.837 272.989L746.332 271.436L744.462 279.675L755.315 290.046L748.097 295.363L750.731 303.918L757.396 311.604L746.859 315.816L741.011 314.157L739.8 316L730.764 310.499L718.015 300.838L715.118 292.731L718.252 287.466L715.881 286.887V286.782L720.597 282.176L719.938 278.543L721.835 277.148L720.518 274.437L705.74 272.463L698.628 262.829L689.066 262.355V261.776L692.701 255.511L686.774 249.825L684.588 244.561L675.605 245.008V244.561L672.866 235.453L670.89 228.452L674.894 223.845L673.682 217.712L681.796 201.129L673.682 185.178L674.42 182.387L670.548 173.596L671.47 170.963L666.596 164.541L668.414 157.223L666.596 155.96L667.756 154.301L687.828 157.171L707.479 169.542L702.869 179.308L693.649 180.755L684.877 173.727L681.479 174.701L688.723 182.94L689.83 192.706L699.471 195.338L704.318 190.074L704.08 184.256L705.371 183.493L723.837 172.516L736.797 159.145L757 153.88L760.267 157.381L764.903 153.433L753.26 144.536L754.024 140.719L763.243 145.852L771.04 145.325L787.925 156.381L788.61 150.248L777.731 139.824L774.333 131.375L778.074 128.532L776.862 116.792L788.61 117.239L789.479 128.742L800.227 147.405L803.73 156.276L801.096 163.856L795.196 164.172L795.723 167.041L804.731 168.121L807.813 158.697L805.047 150.142L811.764 147.3L816.69 154.196L818.771 149.59L814.267 144.983L811.527 145.325L804.283 146.194L796.723 134.007L792.114 126.452L794.511 124.373L792.561 114.818L794.642 113.291L799.779 127.005L803.967 127.768L801.886 119.872L805.838 115.055L815.479 121.846L819.324 116.687L811.975 113.949L806.918 107.263L810.763 103.631H822.854L824.171 98.3662L818.561 93.8914L821.3 84.8892L851.04 64.0418L845.113 57.4612L847.984 48.1431L861.919 50.7753L862.472 57.9087L871.138 49.9067L889.024 62.3045L879.91 91.6803L882.886 94.7601L887.154 86.6264L912.415 77.5452L917.446 81.3619L928.536 77.7558L929.195 72.7019L947.081 75.9922L948.292 83.3625L963.781 91.4698V87.0739L976.056 80.2827L981.325 83.1256L984.301 77.3083L980.113 67.0162L1006.69 60.4356L1026.45 71.9385L1042.67 63.2785L1057.93 77.203H1062.88L1063.98 72.2807L1076.92 69.0957L1077.68 64.6999L1081.76 61.9623L1089.98 71.3858L1093.07 69.6485L1088.22 61.5149L1099.55 54.9342C1099.55 54.9342 1155.84 61.4096 1156.39 61.199C1157.05 61.199 1166.72 81.2567 1166.72 81.2567Z" fill="url(#pattern1_257_6460)" stroke="#FCFCFC" stroke-width="2"/>
<path id="RUS" d="M1083.08 230.636L1096.25 247.693L1093.17 249.957L1087.03 246.43L1094.94 262.013L1090.75 264.855L1086.8 257.406L1082.19 241.402L1074.07 221.423L1073.23 219.186L1070.99 213.316H1073.2L1077.58 217.923L1083.08 230.636Z" fill="url(#pattern2_257_6460)" stroke="#FCFCFC" stroke-width="2"/>
<path id="RUS" d="M841.293 34.3237L844.244 40.2463L835.024 49.617L829.598 41.8783V30.8755L841.293 34.3237Z" fill="url(#pattern3_257_6460)" stroke="#FCFCFC" stroke-width="2"/>
<path id="RUS" d="M817.665 25.2688L825.963 36.4558L824.329 41.8782L813.635 40.2463L809.341 33.9815L812.634 25.2688H817.665Z" fill="url(#pattern4_257_6460)" stroke="#FCFCFC" stroke-width="2"/>
<path id="RUS" d="M809.341 23.7948L805.89 30.8756L797.646 28.2433L795.354 19.8465L797.646 13.2659L809.341 23.7948Z" fill="url(#pattern5_257_6460)" stroke="#FCFCFC" stroke-width="2"/>
<path id="RUS" d="M759.635 78.4138L764.403 85.4945L743.83 108.843L741.196 131.217L750.073 139.956L742.671 142.404L729.342 134.691L732.951 103.104L759.635 78.4138Z" fill="url(#pattern6_257_6460)" stroke="#FCFCFC" stroke-width="2"/>
<path id="RUS" d="M725.707 40.2463L731.133 48.1431H722.256L720.281 40.4043L728.657 32.3496L730.317 36.956L725.707 40.2463Z" fill="url(#pattern7_257_6460)" stroke="#FCFCFC" stroke-width="2"/>
<path id="RUS" d="M712.22 28.9014L716.645 39.5883L713.195 48.1431L705.134 43.1944L709.586 28.9014H712.22Z" fill="url(#pattern8_257_6460)" stroke="#FCFCFC" stroke-width="2"/>
<path id="RUS" d="M697.047 43.1943L702.158 53.4074L698.048 58.0139L683.244 49.9592L688.671 43.1943H697.047Z" fill="url(#pattern9_257_6460)" stroke="#FCFCFC" stroke-width="2"/>
</g>
<path id="Vector_72" d="M699.128 488.886L700.682 492.571L697.548 493.308L693.07 494.598L694.914 488.228L698.865 488.833L699.128 488.886Z" fill="#FCC33C" stroke="#FCFCFC" stroke-width="2"/>
<path id="Vector_73" d="M697.548 493.308L700.683 497.94L695.757 502.02L694.756 497.94L693.017 497.361V494.808L693.07 494.597L697.548 493.308Z" fill="#F54242" stroke="#FCFCFC" stroke-width="2"/>
<path id="Vector_74" d="M700.577 470.065L698.944 479.91L694.914 488.227L693.07 494.597L693.017 494.624V494.808V497.361V509.68L696.81 512.892L696.942 515.708L691.305 517.84L695.915 533.291L692.279 536.74L685.536 530.291L673.393 529.106L672.708 529.027L665.438 521.288L663.962 512.576L656.508 511.26L654.427 514.366L648.316 515.366L644.707 507.153L628.691 507.917L626.478 504.811L631.852 501.994L638.227 502.863L643.495 497.151V492.334L648.869 487.175L653.584 472.039V467.117L655.902 465.037L672.708 466.669L686.142 464.221L689.382 467.433L695.414 466.354L700.577 470.065Z" fill="url(#pattern10_257_6460)" stroke="#FCFCFC" stroke-width="2"/>
<path id="Vector_75" d="M696.942 515.708L696.81 512.892L693.017 509.68V497.361L694.756 497.94L695.757 502.02L695.915 502.705V508.627L698.865 510.601L700.024 517.498L696.942 515.708Z" fill="#FCC33C" stroke="#FCFCFC" stroke-width="2"/>
<path id="Vector_76" d="M696.652 542.109V544.557L690.804 545.874L683.719 553.691H677.713L675.579 551.901L670.627 552.296L668.994 551.033L665.438 548.269V535.345H673.34V529.527L673.393 529.106L685.536 530.291L692.279 536.74L696.652 542.109Z" fill="#5398F5" stroke="#FCFCFC" stroke-width="2"/>
<path id="Vector_77" d="M692.701 255.511L689.066 261.776V262.355L685.036 266.382L669.81 264.882L662.408 265.698L661.486 262.829L662.988 260.934L659.405 253.326L665.201 254.695L670.89 245.245L675.605 245.009L684.588 244.561L686.774 249.826L692.701 255.511Z" fill="#F54242" stroke="#FCFCFC" stroke-width="2"/>
<path id="Vector_78" d="M690.357 597.518V601.414L685.036 605.31L681.19 600.256L684.219 597.018L688.223 596.202L690.357 597.518Z" fill="#FCC33C" stroke="#FCFCFC" stroke-width="2"/>
<path id="Vector_79" d="M677.713 553.691L689.777 571.38L684.878 573.775L676.58 584.673L667.65 582.804L664.305 587.647L659.537 587.91L656.482 582.435L657.008 569.274H659.959L661.328 556.613L671.654 555.771L675.579 551.901L677.713 553.691Z" fill="#FCC33C" stroke="#FCFCFC" stroke-width="2"/>
<path id="Vector_80" d="M686.853 289.098L687.512 291.309L684.14 291.546L682.56 294.916L682.217 295.126L681.743 295.416L680.716 290.23L674.842 283.571L673.34 283.965L675.579 281.175L679.03 282.649L682.665 283.149L683.244 286.782L686.853 289.098Z" fill="#EEF5FF" stroke="#FCFCFC" stroke-width="2"/>
<path id="Vector_81" d="M686.774 297.811L683.244 303.971L677.054 303.049L674.025 304.866L662.198 304.392L661.908 302.102L658.457 299.075L653.584 293.679L660.433 284.387L664.226 283.571L667.097 285.598L673.34 283.966L674.842 283.571L680.716 290.23L681.743 295.416L682.217 295.126L682.402 295.416L686.774 297.811Z" fill="#EEF5FF" stroke="#FCFCFC" stroke-width="2"/>
<path id="Vector_82" d="M674.025 452.139L686.142 464.221L672.708 466.669L655.902 465.037L653.584 467.117L642.362 471.486L637.779 465.248L638.016 460.089L641.256 453.35L643.495 455.588L660.301 449.112L668.414 440.663L674.025 452.139Z" fill="#F54242" stroke="#FCFCFC" stroke-width="2"/>
<path id="Vector_83" d="M683.244 303.971L680.716 308.419L682.059 310.683L677.555 313.341L675.79 312.683L674.025 315.368L665.78 315.816L662.566 311.13L662.988 310.946L662.198 304.392L674.025 304.866L677.054 303.049L683.244 303.971Z" fill="#EEF5FF" stroke="#FCFCFC" stroke-width="2"/>
<path id="Vector_84" d="M673.682 185.177L681.796 201.129L673.682 217.712L658.747 220.239L650.634 216.712L648.447 203.129L652.293 196.628L658.984 185.335L653.162 183.045L652.109 168.91L642.178 161.882L644.549 160.013L652.952 164.04L657.799 161.829V158.776L658.299 155.065L663.304 153.669L666.597 155.959L668.414 157.223L666.597 164.541L671.47 170.963L670.548 173.596L674.42 182.387L673.682 185.177Z" fill="#EEF5FF" stroke="#FCFCFC" stroke-width="2"/>
<path id="Vector_85" d="M677.555 313.341L676.317 317.948H674.025L663.91 319.711L669.521 331.662L665.569 338.006L659.748 334.847L658.325 329.477L653.584 324.95V324.923L657.641 319.58L665.78 315.816L674.025 315.368L675.79 312.683L677.555 313.341Z" fill="#5398F5" stroke="#FCFCFC" stroke-width="2"/>
<path id="Vector_86" d="M676.027 399.337L676.211 406.444L672.365 408.55L641.967 392.414L638.121 394.73L625.767 393.862L619.682 380.964L617.391 365.486L618.365 365.012L620.841 362.196L622.87 353.378L639.438 355.247L640.308 361.38L653.584 366.197L655.243 356.668L664.911 353.799L674.973 357.195V357.221L676.027 399.337Z" fill="#242424" stroke="#FCFCFC" stroke-width="2"/>
<path id="Vector_87" d="M675.579 244.561L675.605 245.009L670.89 245.245L665.121 241.455H655.085L651.187 244.456L651.503 232.505L657.377 225.898L662.408 231.9L672.866 235.453L675.579 244.561Z" fill="#5398F5" stroke="#FCFCFC" stroke-width="2"/>
<path id="Vector_88" d="M656.481 582.435L656.007 594.78L647.552 597.281L640.808 593.807L636.146 582.935V571.196L626.162 554.639L626.004 551.901L631.273 549.532L634.829 551.664L650.08 551.217L653.373 553.086L659.247 552.27L663.146 553.691L668.994 551.033L670.627 552.296L675.579 551.901L671.654 555.771L661.328 556.613L659.959 569.274H657.008L656.481 582.435Z" fill="#EEF5FF" stroke="#FCFCFC" stroke-width="2"/>
<path id="Vector_89" d="M674.894 223.845L670.89 228.452L672.866 235.453L662.408 231.9L657.377 225.898L659.195 223.845H674.894Z" fill="#EEF5FF" stroke="#FCFCFC" stroke-width="2"/>
<path id="Vector_90" d="M673.393 529.106L673.34 529.527V535.345H665.438V548.269L668.994 551.033L663.146 553.691L659.247 552.27L653.373 553.086L650.08 551.217L634.829 551.665L631.273 549.532L626.004 551.901L625.504 542.794L633.617 531.475L628.691 507.917L644.707 507.153L648.316 515.366L654.427 514.366L656.508 511.26L663.962 512.576L665.438 521.288L672.708 529.027L673.393 529.106Z" fill="#FCC33C" stroke="#FCFCFC" stroke-width="2"/>
<path id="Vector_91" d="M672.365 408.55L672.708 422.685L669.626 423.448L665.569 434.53L668.414 440.663L660.301 449.113L643.495 455.588L641.256 453.35L636.699 448.797L636.91 445.927H641.967L639.228 441.663L638.833 437.952L638.675 436.504L633.301 430.924V426.607L640.966 419.605L641.967 404.97L638.121 394.73L641.967 392.414L672.365 408.55Z" fill="#F54242" stroke="#FCFCFC" stroke-width="2"/>
<path id="Vector_92" d="M671.707 150.485L667.756 154.301L666.597 155.96L663.304 153.67L658.299 155.065L657.799 158.776V161.83L652.952 164.041L644.549 160.013L642.178 161.882L633.275 168.989L631.826 172.464L626.926 170.437V166.91L618.576 172.069L616.601 170.437L626.926 163.514L645.813 150.801L659.089 144.325L664.568 145.641L671.707 150.485Z" fill="#EEF5FF" stroke="#FCFCFC" stroke-width="2"/>
<path id="Vector_93" d="M670.89 245.245L665.2 254.695L659.405 253.326L657.772 249.825L651.187 244.456L655.085 241.455H665.121L670.89 245.245Z" fill="#5398F5" stroke="#FCFCFC" stroke-width="2"/>
<path id="Vector_94" d="M662.566 311.13L665.78 315.816L657.641 319.58L656.482 313.763L662.566 311.13Z" fill="#FCC33C" stroke="#FCFCFC" stroke-width="2"/>
<path id="Vector_95" d="M662.408 265.698L664.226 271.357L659.037 282.649L649.896 283.966L645.128 287.256L641.836 286.15L641.677 285.598L640.597 281.912L640.571 281.36L646.761 281.096L649.475 277.069L643.311 274.279L632.932 269.488L630.351 255.932L638.675 251.589L649 253.142L657.772 249.825L659.405 253.326L662.988 260.934L661.486 262.829L662.408 265.698Z" fill="#5398F5" stroke="#FCFCFC" stroke-width="2"/>
<path id="Vector_96" d="M662.198 304.392L662.988 310.946L662.566 311.13L656.481 313.762L653.584 310.551L654.901 308.419L650.265 305.339L648.078 299.075L649 298.864L649.475 294.916H650.133L653.584 293.678L658.457 299.075L661.908 302.102L662.198 304.392Z" fill="#EEF5FF" stroke="#FCFCFC" stroke-width="2"/>
<path id="Vector_97" d="M659.037 282.649L660.433 284.387L653.584 293.678L650.133 294.916H649.475H642.652L640.598 290.23L639.834 289.914L641.651 285.598H641.678L641.836 286.15L645.128 287.256L649.896 283.966L659.037 282.649Z" fill="#EEF5FF" stroke="#FCFCFC" stroke-width="2"/>
<path id="Vector_98" d="M656.482 313.763L657.641 319.58L653.584 324.923L652.952 324.318L651.187 314.763L650.423 313.763L653.584 310.551L656.482 313.763Z" fill="#5398F5" stroke="#FCFCFC" stroke-width="2"/>
<path id="Vector_99" d="M654.901 308.419L653.584 310.551L650.423 313.763L647.446 309.735L650.502 306.024L650.265 305.339L654.901 308.419Z" fill="#EEF5FF" stroke="#FCFCFC" stroke-width="2"/>
<path id="Vector_100" d="M653.584 467.117V472.039L648.869 487.175L643.495 492.334V497.151L638.227 502.863L631.852 501.994L626.479 504.811L622.975 499.941L626.926 497.256V494.203L630.983 492.544L634.381 493.65L637.015 487.727L631.852 475.777L642.942 477.751L643.495 473.039L642.362 471.486L653.584 467.117Z" fill="#FCC33C" stroke="#FCFCFC" stroke-width="2"/>
<path id="Vector_101" d="M652.109 168.91L653.162 183.046L652.609 182.835L647.552 188.205L647.341 193.68L637.015 204.656L637.252 213.211L642.837 220.871L638.675 227.451L634.723 243.034L627.796 244.903L626.215 243.324L622.527 239.639L615.942 226.925L620.341 227.136L622.475 213.895L619.919 210.526V197.444L623.054 195.97L628.164 181.308L631.826 172.464L633.275 168.989L642.178 161.882L652.109 168.91Z" fill="#EEF5FF" stroke="#FCFCFC" stroke-width="2"/>
<path id="Vector_102" d="M650.265 305.339L650.502 306.024L647.446 309.735L643.89 309.262V307.182L637.041 299.838L638.2 298.232L643.89 300.101L648.078 299.075L650.265 305.339Z" fill="#5398F5" stroke="#FCFCFC" stroke-width="2"/>
<path id="Vector_103" d="M649.475 277.069L646.761 281.096L640.571 281.36L639.597 281.412L633.591 280.28L631.773 281.675H627.585L624.213 286.782L616.311 286.492L606.696 286.15L608.988 280.781L599.241 278.28L601.981 273.779L600.664 269.488L605.616 263.987L606.143 257.959L610.911 257.406L608.303 249.273L613.545 248.193L613.308 253.905L620.894 253.458L628.56 256.853L630.351 255.932L632.932 269.488L643.311 274.279L649.475 277.069Z" fill="#EEF5FF" stroke="#FCFCFC" stroke-width="2"/>
<path id="Vector_104" d="M649.475 294.916L649 298.864L648.079 299.075L643.89 300.101L638.2 298.232L637.041 299.838L643.89 307.182V309.262L642.283 309.051L631.352 298.232L634.513 297.706L638.701 292.626L639.834 289.915L640.598 290.23L642.652 294.916H649.475Z" fill="#5398F5" stroke="#FCFCFC" stroke-width="2"/>
<path id="Vector_105" d="M648 320.133V323.528L644.259 320.133L642.073 320.475L644.259 325.081L641.52 332.873L638.885 331.004L639.886 323.765L628.56 317.843L617.812 307.524V304.023L612.649 302.812L608.119 305.339L605.195 294.837L601.665 293.521L606.09 287.519L606.696 286.15L616.311 286.493V286.782L615.073 289.493L618.866 290.888L623.212 289.993L627.585 292.626H629.139L628.375 296.943L626.373 296.574L627.796 304.023L637.779 312.999L648 320.133Z" fill="#5398F5" stroke="#FCFCFC" stroke-width="2"/>
<path id="Vector_106" d="M647.894 59.9355L643.39 69.6485L634.671 70.833L623.976 63.1732L629.297 56.9084L633.459 59.488L647.894 59.9355Z" fill="#EEF5FF" stroke="#FCFCFC" stroke-width="2"/>
<path id="Vector_107" d="M642.362 471.486L643.495 473.039L642.942 477.751L631.852 475.777L631.431 475.698H625.715H620.236H620.209L620.657 474.356L616.838 466.354L620.657 457.615L624.608 459.325L633.301 442.979L638.833 437.952L639.228 441.663L641.967 445.927H636.91L636.699 448.797L641.256 453.35L638.016 460.089L637.779 465.248L642.362 471.486Z" fill="#FCC33C" stroke="#FCFCFC" stroke-width="2"/>
<path id="Vector_108" d="M639.781 78.0189L642.468 85.0469L638.569 95.1284L632.801 91.5223L633.512 81.704L630.667 77.7556L631.668 75.0444L639.781 78.0189Z" fill="#EEF5FF" stroke="#FCFCFC" stroke-width="2"/>
<path id="Vector_109" d="M638.121 394.73L641.967 404.97L640.966 419.605L633.301 426.607V430.924L627.796 433.661L615.731 433.556L599.821 430.924L596.739 435.293L598.161 443.216L593.789 448.349L594.447 460.089L590.496 461.563L590.259 460.957L589.6 446.612L586.36 441.347L588.31 438.268H591.918L590.601 434.767L583.568 428.949L584.121 425.475L590.549 426.185L597.292 422.079L597.635 410.234L625.767 393.862L638.121 394.73Z" fill="#F54242" stroke="#FCFCFC" stroke-width="2"/>
<path id="Vector_110" d="M640.597 281.912L641.677 285.597H641.651L639.834 289.914L638.701 292.625H629.139H627.585L623.212 289.993L618.866 290.888L615.073 289.493L616.311 286.782V286.492L624.213 286.782L627.585 281.675H631.773L633.591 280.28L639.596 281.412L640.571 281.359L640.597 281.912Z" fill="#5398F5" stroke="#FCFCFC" stroke-width="2"/>
<path id="Vector_111" d="M638.675 436.504L638.833 437.952L633.301 442.979L624.608 459.325L620.657 457.615L616.838 466.354L605.089 468.538L597.398 458.983L594.447 460.089L593.789 448.349L598.161 443.216L596.739 435.293L599.821 430.924L615.731 433.556L627.796 433.661L633.301 430.924L638.675 436.504Z" fill="#FCC33C" stroke="#FCFCFC" stroke-width="2"/>
<path id="Vector_112" d="M638.701 292.625L634.513 297.706L631.352 298.232L630.43 297.337L628.375 296.942L629.139 292.625H638.701Z" fill="#EEF5FF" stroke="#FCFCFC" stroke-width="2"/>
<path id="Vector_113" d="M636.962 331.425L638.121 333.504L636.146 338.111L627.348 335.294L626.926 331.925L634.987 332.346L636.962 331.425Z" fill="#5398F5" stroke="#FCFCFC" stroke-width="2"/>
<path id="Vector_114" d="M631.852 475.777L637.015 487.727L634.381 493.65L630.983 492.544L626.926 494.203V497.256L622.975 499.941L615.626 489.702L618.603 480.647L624.292 481.252L625.715 475.698H631.431L631.852 475.777Z" fill="#FCC33C" stroke="#FCFCFC" stroke-width="2"/>
<path id="Vector_115" d="M631.826 172.464L628.164 181.308L623.054 195.97L619.919 197.444V210.526L622.474 213.895L620.341 227.135L615.942 226.925L611.332 230.32L602.455 233.269L597.845 226.688L595.422 209.815L605.194 205.077L618.918 190.495L621.21 179.097L626.926 170.437L631.826 172.464Z" fill="#EEF5FF" stroke="#FCFCFC" stroke-width="2"/>
<path id="Vector_116" d="M631.668 75.0445L630.667 77.7557L625.399 98.3662L612.228 88.0741L607.829 66.1212L619.235 65.042L630.667 74.676L631.668 75.0445Z" fill="#EEF5FF" stroke="#FCFCFC" stroke-width="2"/>
<path id="Vector_117" d="M619.682 380.964L625.767 393.861L597.634 410.234L561.283 384.464L550.035 376.515L556.12 370.75L565.024 367.144L572.11 359.563L577.536 357.589L576.667 344.928L586.202 339.216L610.463 337.584L612.28 337.11L610.621 349.692L617.391 365.486L619.682 380.964Z" fill="#FCC33C" stroke="#FCFCFC" stroke-width="2"/>
<path id="Vector_118" d="M625.715 475.698L624.292 481.252L618.602 480.647L620.209 475.698H620.236H625.715Z" fill="#FCC33C" stroke="#FCFCFC" stroke-width="2"/>
<path id="Vector_119" d="M624.081 245.456L621.105 250.062L613.545 248.193L608.303 249.273L607.276 246.114L606.959 239.428L615.283 236.032L615.731 244.903L619.577 246.667L619.893 244.245L624.081 245.456Z" fill="#5398F5" stroke="#FCFCFC" stroke-width="2"/>
<path id="Vector_120" d="M618.365 335.505L622.975 345.139L619.472 347.903L622.87 353.378L620.841 362.196L618.365 365.012L617.391 365.486L610.621 349.693L612.28 337.111L618.365 335.505Z" fill="#FCC33C" stroke="#FCFCFC" stroke-width="2"/>
<path id="Vector_121" d="M615.31 317.632L617.391 327.397L611.437 328.056V318.948L615.31 317.632Z" fill="#5398F5" stroke="#FCFCFC" stroke-width="2"/>
<path id="Vector_122" d="M615.073 308.419V315.816L611.859 315.315L611.437 310.788L615.073 308.419Z" fill="#5398F5" stroke="#FCFCFC" stroke-width="2"/>
<path id="Vector_123" d="M608.988 280.781L606.696 286.15L606.09 287.519L601.665 293.521L605.195 294.837L608.118 305.339L603.008 308.182L596.186 305.103L592.682 307.314V310.946L583.963 310.13L577.984 306.761L577.194 298.417L580.618 295.258L568.87 287.23L567.553 282.86L592.366 270.12L596.475 277.569L599.241 278.28L608.988 280.781Z" fill="#5398F5" stroke="#FCFCFC" stroke-width="2"/>
<path id="Vector_124" d="M606.143 257.959L605.616 263.987L600.664 269.488L593.71 267.382L597.845 258.933L606.143 257.959Z" fill="#EEF5FF" stroke="#FCFCFC" stroke-width="2"/>
<path id="Vector_125" d="M600.664 269.488L601.981 273.779L599.242 278.28L596.476 277.569L592.366 270.12L593.71 267.382L600.664 269.488Z" fill="#5398F5" stroke="#FCFCFC" stroke-width="2"/>
<path id="Vector_126" d="M597.635 410.234L597.292 422.079L590.549 426.185L584.121 425.475L581.83 425.211L561.889 442.979H555.804L554.435 442.532L530.806 434.766L530.279 434.582L520.902 437.399L517.714 425.869L522.114 419.394L534.889 425.211L563.549 422.079L561.073 384.754L561.283 384.464L597.635 410.234Z" fill="#F54242" stroke="#FCFCFC" stroke-width="2"/>
<path id="Vector_127" d="M592.682 310.946V315.315L582.146 324.318L582.594 328.924L574.902 337.374L567.342 337.479L562.284 341.19L557.569 336.268V326.739L555.857 324.212L557.938 322.844L559.677 314.578L550.747 312.104V310.156L554.935 305.55L577.984 306.761L583.963 310.13L592.682 310.946Z" fill="#5398F5" stroke="#FCFCFC" stroke-width="2"/>
<path id="Vector_128" d="M590.601 434.767L591.919 438.268H588.31L586.36 441.347L589.6 446.612L590.259 460.958L590.496 461.563L586.36 463.09L585.992 448.033L582.146 440.663L573.242 441.768V445.822L572.979 446.638L561.889 442.979L581.83 425.212L584.121 425.475L583.568 428.949L590.601 434.767Z" fill="#F54242" stroke="#FCFCFC" stroke-width="2"/>
<path id="Vector_129" d="M577.905 252.326L586.413 264.645L585.992 268.593L565.024 275.937L564.576 273.41L569.081 270.778L570.503 268.699H566.446L566.657 259.275L572.162 256.301L577.905 252.326Z" fill="#5398F5" stroke="#FCFCFC" stroke-width="2"/>
<path id="Vector_130" d="M585.992 448.033L586.361 463.09L576.772 466.669L572.716 463.721L573.242 453.508V446.717L572.979 446.638L573.242 445.822V441.768L582.146 440.663L585.992 448.033Z" fill="#FCC33C" stroke="#FCFCFC" stroke-width="2"/>
<path id="Vector_131" d="M577.905 252.326L572.162 256.301L565.472 247.088H562.706L559.545 243.482L564.26 231.294H569.976L571.609 240.744L575.113 248.299L577.905 252.326Z" fill="#5398F5" stroke="#FCFCFC" stroke-width="2"/>
<path id="Vector_132" d="M576.667 344.928L577.536 357.589L572.11 359.564L565.024 367.144L556.121 370.751L550.036 376.515H534.178L547.033 367.96L546.269 363.012L550.852 350.851L558.228 349.64L562.601 342.507L565.682 345.27L576.667 344.928Z" fill="#5398F5" stroke="#FCFCFC" stroke-width="2"/>
<path id="Vector_133" d="M573.242 446.717V453.508L572.715 463.721L554.935 466.669L554.803 460.957L551.642 459.089L552.512 455.272L552.591 454.693L552.722 454.719L554.276 442.979L554.435 442.532L555.804 442.979H561.889L572.979 446.638L573.242 446.717Z" fill="#FCC33C" stroke="#FCFCFC" stroke-width="2"/>
<path id="Vector_134" d="M561.073 384.754L563.549 422.079L534.889 425.212L522.114 419.394L519.927 401.416L534.178 400.363L538.366 382.438H549.719L550.036 376.515L561.283 384.465L561.073 384.754Z" fill="#F54242" stroke="#FCFCFC" stroke-width="2"/>
<path id="Vector_135" d="M563.496 251.036L561.731 254.984L559.545 265.408H555.594L549.114 267.382L545.373 263.434L549.535 259.38L548.35 253.142L552.406 250.72L556.911 246.982L563.496 251.036Z" fill="#EEF5FF" stroke="#FCFCFC" stroke-width="2"/>
<path id="Vector_136" d="M559.676 314.579L557.938 322.844L555.857 324.213L557.569 326.74V336.268L551.089 334.61L551.853 330.793L548.112 327.266L550.747 322.449V312.104L559.676 314.579Z" fill="#EEF5FF" stroke="#FCFCFC" stroke-width="2"/>
<path id="Vector_137" d="M554.803 460.957L554.935 466.669L540.026 457.614L545.057 450.56L548.771 454.087L552.591 454.693L552.512 455.272L551.642 459.088L554.803 460.957Z" fill="#FCC33C" stroke="#FCFCFC" stroke-width="2"/>
<path id="Vector_138" d="M554.435 442.532L554.276 442.979L552.722 454.719L552.591 454.693L548.771 454.087L545.057 450.56L540.026 457.614L535.047 454.614L524.511 441.768L530.121 440.136L530.806 434.767L554.435 442.532Z" fill="#FCC33C" stroke="#FCFCFC" stroke-width="2"/>
<path id="GRL" d="M545.057 40.6937L554.04 50.3277L538.024 67.4373L529.252 87.6266L531.886 115.265L514.764 124.267L519.137 144.22L506.203 161.329L487.106 163.514L475.911 178.439L458.13 182.835L437.716 217.712L420.804 200.155L420.357 164.409L429.155 158.487L433.106 142.693L426.283 134.138L424.545 95.3127L397.756 86.9685L396.649 62.0675L414.219 57.5664L446.988 30.7175L447.146 30.5859L463.609 21.1625L466.902 31.902L479.203 35.8504L482.048 17.4247L500.487 13.9238L531.439 20.2939L535.6 31.4809L511.893 33.613L515.634 39.5882L525.512 36.9559L530.991 40.6937L525.301 51.6702L545.057 40.6937Z" fill="#EEF5FF" stroke="#FCFCFC" stroke-width="2"/>
<path id="Vector_140" d="M550.036 376.515L549.719 382.438H538.366L534.178 400.363L519.927 401.416L534.178 376.515H550.036Z" fill="#F54242" stroke="#FCFCFC" stroke-width="2"/>
<path id="Vector_141" d="M541.422 179.65L545.057 191.811L519.796 201.261L513.21 196.97L511.788 187.441L506.757 184.02L511.788 178.65L518.268 183.151L527.935 177.123L541.422 179.65Z" fill="#5398F5" stroke="#FCFCFC" stroke-width="2"/>
<path id="Vector_142" d="M530.279 434.583L530.806 434.767L530.121 440.137L524.511 441.769L520.902 437.399L530.279 434.583Z" fill="#FCC33C" stroke="#FCFCFC" stroke-width="2"/>
<path id="BRA" d="M449.437 506.653L451.597 520.314L437.11 538.398L428.549 574.749L404.183 587.437L404.499 594.017L387.061 625.104L374.865 626.92L369.781 620.971L371.098 604.862L384.269 592.701L382.793 584.567L381.845 579.408L377.446 577.224L376.024 571.643H368.121L365.935 562.088L368.78 557.166L363.511 547.269H358.349L356.057 538.187L339.593 532.923L335.194 522.947L322.366 529.29L321.681 529.396L311.75 524.026L303.927 513.286L309.511 503.521L315.438 501.336L319.6 497.598L319.732 496.835L319.047 484.542L328.609 476.751L334.641 482.252L343.861 476.33L339.909 467.985L345.389 469.196L354.845 464.906L355.398 465.353L357.953 470.17L356.663 475.329L361.325 480.146L370.202 476.988L371.203 476.751L378.869 473.803L379.211 474.461L381.792 478.067L388.378 471.302L396.28 483.121L431.683 495.308L449.437 506.653Z" fill="#FCC33C" stroke="#FCFCFC" stroke-width="2"/>
<path id="Vector_144" d="M444.274 12.7657L442.114 24.7687L431.92 27.7432L431.183 31.4546L409.53 43.9578L401.707 44.4316L394.12 55.5396L392.619 56.6715L375.26 69.6485L377.341 74.9129L367.673 80.2301L362.194 75.3341L353.423 76.6502L344.308 72.8335L344.756 68.4113L350.762 65.4895L362.036 60.7252L359.244 54.6447L363.828 48.3273L370.597 47.3271L372.072 34.8239L375.523 29.8753L384.506 33.5078H392.645L394.621 30.2965L380.475 28.9014L372.494 21.8206L376.761 8.89633L400.468 1.3418L426.151 2.81585L444.274 12.7657Z" fill="#EEF5FF" stroke="#FCFCFC" stroke-width="2"/>
<path id="Vector_145" d="M393.594 271.436L399.389 280.991L396.544 288.44L392.487 286.361V283.176H387.008L375.049 281.544L383.268 266.83L390.854 264.987L387.219 270.015L393.594 271.436Z" fill="#EEF5FF" stroke="#FCFCFC" stroke-width="2"/>
<path id="Vector_146" d="M377.13 150.906L394.12 169.542L382.398 180.966L378.868 178.123L373.732 167.805L370.097 170.437L376.471 181.624L378.315 192.048L373.047 193.917L363.064 185.783L369.438 197.733L367.463 200.155L352.422 187.757L349.893 179.544L336.959 178.992L335.3 174.596L338.935 171.411H351.21V167.91L359.56 161.645L361.325 154.643L349.471 133.243L343.545 141.035L321.049 129.532L318.942 117.897L333.429 98.9189L343.545 99.577L354.187 101.104L363.722 104.42L364.828 113.291L372.942 124.583L382.609 146.641L377.13 150.906Z" fill="#EEF5FF" stroke="#FCFCFC" stroke-width="2"/>
<path id="CAN" d="M370.597 208.868L392.803 258.406L381.74 263.539L380.792 263.987L374.549 268.751L352.474 267.435L356.426 284.545L368.938 286.045L366.804 294.258L347.68 296.837L344.256 282.57H338.171L330.084 292.441H317.098L311.145 295.732L300.792 297.548L298.316 292.441L296.499 284.545L283.987 281.596L279.219 271.383L273.292 269.751L266.285 274.095L141.242 256.748L134.025 221.055L123.962 181.387L114.031 174.78L160.524 92.2856L166.609 97.4975L174.854 109.843L204.146 98.3135L230.329 121.846V130.401L249.453 132.401L261.596 133.691L272.186 138.271L287.437 144.878L321.866 138.955L335.853 146.694L323.999 162.803L315.28 158.539L272.475 196.207L272.791 218.739L302.61 234.874L300.292 250.983L307.536 259.38L311.988 253.958L311.645 236.032L323.999 230.083V213.158L330.743 191.1L353.633 201.471V216.922L357.927 221.871L370.597 208.868Z" fill="#EEF5FF" stroke="#FCFCFC" stroke-width="2"/>
<path id="Vector_148" d="M381.793 461.405L388.378 471.302L381.793 478.067L379.211 474.461L378.869 473.803L378.447 466.669L381.793 461.405Z" fill="#5398F5" stroke="#FCFCFC" stroke-width="2"/>
<path id="ARG" d="M382.794 584.567L384.269 592.701L371.098 604.862L369.781 620.971L374.865 626.92L377.999 635.291L372.573 643.53L359.402 645.162L353.633 689.094L343.255 704.729L346.758 711.784H336.617L329.478 700.623L331.691 682.513L323.999 654.111L326.528 646.767L325.211 641.055L328.398 623.393L326.08 611.548L328.504 583.041L332.56 580.409L336.064 571.406H350.235L357.795 579.645L369.649 583.357L366.699 592.806L376.682 594.017L382.767 584.567H382.794Z" fill="#FCC33C" stroke="#FCFCFC" stroke-width="2"/>
<path id="Vector_150" d="M381.845 579.408L382.793 584.568H382.767L376.682 594.017L366.699 592.806L369.649 583.357L357.795 579.645L350.235 571.406L351.658 562.088L361.193 558.798L365.935 562.088L368.121 571.643H376.024L377.446 577.224L381.845 579.408Z" fill="#FCC33C" stroke="#FCFCFC" stroke-width="2"/>
<path id="Vector_151" d="M381.793 461.405L378.447 466.669L378.869 473.803L371.203 476.751L370.202 476.988L365.593 466.669L367.779 461.405H381.793Z" fill="#FCC33C" stroke="#FCFCFC" stroke-width="2"/>
<path id="Vector_152" d="M372.494 28.0853L369.438 34.0868L367.463 44.5105H360.877L355.372 53.3285L347.865 51.5912L346.468 44.6947L351.078 39.4303L354.292 39.5092L354.371 37.693L349.261 36.2189L353.212 26.6639L356.426 25.611L360.956 16.8719L364.249 17.6353L365.829 13.9238L368.543 15.898L368.938 26.6639L372.494 28.0853Z" fill="#EEF5FF" stroke="#FCFCFC" stroke-width="2"/>
<path id="Vector_153" d="M365.592 466.669L370.202 476.988L361.325 480.146L356.663 475.329L357.953 470.17L355.398 465.353L354.845 464.906L353.423 459.088L357.953 451.086L367.779 461.405L365.592 466.669Z" fill="#FCC33C" stroke="#FCFCFC" stroke-width="2"/>
<path id="Vector_154" d="M363.512 547.269L368.78 557.166L365.935 562.088L361.194 558.798L351.658 562.088L350.236 571.406H336.064L332.56 580.409L328.504 583.041L326.08 611.548L328.398 623.393L325.211 641.055L326.528 646.767L323.999 654.111L331.691 682.513L329.478 700.623L322.761 703.519L317.915 692.226L314.938 640.555L320.048 557.166L325.422 550.138L322.998 544.768L321.681 529.396L322.366 529.29L335.195 522.947L339.594 532.923L356.057 538.187L358.349 547.269H363.512Z" fill="#FCC33C" stroke="#FCFCFC" stroke-width="2"/>
<path id="Vector_155" d="M364.275 84.7838L365.145 90.9169L357.031 95.3127L338.592 91.6802L329.268 85.6524L330.479 79.0718L333.877 75.7815V70.2011L327.213 68.4112L328.188 59.7511L335.853 58.9878L336.274 65.2525L344.756 68.4112L344.309 72.8334L339.593 74.3601L345.626 81.8093L353.712 81.3092L357.69 81.046L364.275 84.7838Z" fill="#EEF5FF" stroke="#FCFCFC" stroke-width="2"/>
<path id="Vector_156" d="M362.195 726.945L357.795 729.209L350.841 727.919L349.234 724.629L350.841 720.022L362.195 726.945Z" fill="#FCC33C" stroke="#FCFCFC" stroke-width="2"/>
<path id="Vector_157" d="M360.008 431.766L361.193 433.819L359.297 435.398L358.138 433.003L360.008 431.766Z" fill="#242424" stroke="#FCFCFC" stroke-width="2"/>
<path id="Vector_158" d="M358.902 440.794V443.795L355.925 444.401L355.398 441.716L358.902 440.794Z" fill="#242424" stroke="#FCFCFC" stroke-width="2"/>
<path id="Vector_159" d="M351.342 444.137L357.953 451.087L353.423 459.089L354.845 464.906L345.389 469.196L339.909 467.986L343.861 476.33L334.641 482.252L328.609 476.751L327.081 459.984L312.04 455.825L307.193 447.48L314.227 440.558L314.78 435.398L351.342 444.137Z" fill="#F54242" stroke="#FCFCFC" stroke-width="2"/>
<path id="Vector_160" d="M357.795 729.209L352.316 732.026L332.06 725.129L322.761 703.519L329.478 700.623L336.617 711.784H346.758L350.841 720.023L349.234 724.629L350.841 727.919L357.795 729.209Z" fill="#FCC33C" stroke="#FCFCFC" stroke-width="2"/>
<path id="Vector_161" d="M350.788 416.157L351.868 418.236L349.603 418.526L348.418 416.92L350.788 416.157Z" fill="#242424" stroke="#FCFCFC" stroke-width="2"/>
<path id="Vector_162" d="M344.256 282.57L347.68 296.837L332.718 298.864L330.084 292.441L338.171 282.57H344.256Z" fill="#EEF5FF" stroke="#FCFCFC" stroke-width="2"/>
<path id="Vector_163" d="M347.312 412.551L347.601 415.13H345.231L344.967 412.919L347.312 412.551Z" fill="#242424" stroke="#FCFCFC" stroke-width="2"/>
<path id="Vector_164" d="M341.121 46.2479V51.6704H333.535V45.9321L337.17 39.5884L341.121 46.2479Z" fill="#EEF5FF" stroke="#FCFCFC" stroke-width="2"/>
<path id="Vector_165" d="M336.854 412.313V415.288L330.901 415.946V413.208L332.007 412.313H336.854Z" fill="#5398F5" stroke="#FCFCFC" stroke-width="2"/>
<path id="USA" d="M330.084 292.441L332.718 298.864L330.084 310.867L318.415 313.499L305.402 340.48L283.17 357.273L285.83 377.621L286.12 379.805L281.537 385.728L271 362.854L230.645 365.17L219.792 379.805L209.414 363.196L204.646 362.696L199.378 366.96L188.999 353.483H170.56L158.206 345.428L149.329 344.586L139.293 338.19L130.547 303.47L142.743 264.145L141.242 256.748L266.285 274.095L256.67 280.096L262.755 282.254L272.317 278.964L274.609 284.387L267.049 298.206L268.524 307.261L273.792 303.312L280.852 287.361L285.804 289.651L288.438 299.206L298.316 292.441L300.792 297.548L299.133 300.18L308.853 301.496L311.145 295.732L317.098 292.441H330.084ZM288.596 309.735L302.268 303.786L298.316 302.47L286.12 305.287L284.645 307.261L288.596 309.735Z" fill="#5398F5" stroke="#FCFCFC" stroke-width="2"/>
<path id="Vector_167" d="M331.665 32.0338L331.164 42.0626L326.396 51.0912L323.104 47.2481L324.21 44.5106C324.21 44.5106 317.651 38.2722 317.914 38.1142C318.151 37.93 325.316 26.1902 325.316 26.1902L331.665 32.0338Z" fill="#EEF5FF" stroke="#FCFCFC" stroke-width="2"/>
<path id="Vector_168" d="M329.268 95.6285L319.943 105.947L313.673 107.474L310.829 111.869L307.088 109.448L310.512 96.5235L317.098 89.9429L329.268 95.6285Z" fill="#EEF5FF" stroke="#FCFCFC" stroke-width="2"/>
<path id="Vector_169" d="M327.081 459.984L328.609 476.751L319.047 484.542L319.732 496.835L307.747 493.861L301.056 485.753L298.896 484.832L285.04 478.936L290.914 470.46L288.438 455.825L294.707 453.008L314.78 435.398L314.227 440.558L307.193 447.48L312.04 455.825L327.081 459.984Z" fill="#FCC33C" stroke="#FCFCFC" stroke-width="2"/>
<path id="Vector_170" d="M326.633 409.365V413.63L319.179 413.156L314.2 415.551L312.435 413.63L314.253 409.576L313.884 406.996V406.97L319.679 405.917L326.633 409.365Z" fill="#FCC33C" stroke="#FCFCFC" stroke-width="2"/>
<path id="Vector_171" d="M322.998 544.768L325.422 550.138L320.048 557.166L293.048 539.372L278.929 499.783L283.828 503.521L289.202 498.046L298.659 490.044V485.411L298.896 484.832L301.056 485.753L307.746 493.861L319.732 496.835L319.6 497.598L315.438 501.336L309.511 503.521L303.927 513.287L311.75 524.026L321.681 529.396L322.998 544.768Z" fill="#FCC33C" stroke="#FCFCFC" stroke-width="2"/>
<path id="Vector_172" d="M324.21 64.5945L315.096 80.2301L306.324 77.0977L307.088 72.7018L312.356 72.1491L313.015 70.6224L303.137 68.9904L304.559 56.5925L316.545 57.04L324.21 64.5945Z" fill="#EEF5FF" stroke="#FCFCFC" stroke-width="2"/>
<path id="Vector_173" d="M313.884 406.997L314.253 409.576L312.435 413.63L305.876 414.525L304.112 411.708L310.671 410.603L311.197 409.287L308.484 406.944L311.197 405.68L313.621 407.023L313.884 406.97V406.997Z" fill="#242424" stroke="#FCFCFC" stroke-width="2"/>
<path id="Vector_174" d="M310.829 111.87L309.617 113.739L310.512 127.005L303.69 132.48L295.129 126.242L296.13 117.792L307.088 109.448L310.829 111.87Z" fill="#EEF5FF" stroke="#FCFCFC" stroke-width="2"/>
<path id="Vector_175" d="M309.406 86.9688L310.512 93.3388L306.561 96.2869L305.455 106.868L294.47 113.291L288.544 96.1816L292.284 92.4965L296.235 98.0505L297.105 89.1535L309.406 86.9688Z" fill="#EEF5FF" stroke="#FCFCFC" stroke-width="2"/>
<path id="Vector_176" d="M309.274 28.5593L304.401 36.2981L296.92 33.0867L299.08 27.8223L309.274 28.5593Z" fill="#EEF5FF" stroke="#FCFCFC" stroke-width="2"/>
<path id="Vector_177" d="M305.876 404.154L299.291 407.891L293.601 405.575L292.179 402.39L280.43 396.152L268.682 397.573L268.182 395.283L278.56 391.098L280.773 391.387L285.909 392.098L305.876 404.154Z" fill="#EEF5FF" stroke="#FCFCFC" stroke-width="2"/>
<path id="Vector_178" d="M303.137 38.6405L294.866 46.0897L288.017 40.6673L289.993 35.4028L303.137 38.6405Z" fill="#EEF5FF" stroke="#FCFCFC" stroke-width="2"/>
<path id="Vector_179" d="M300.397 384.017L299.186 385.939L297.658 384.807L298.264 382.885L300.397 384.017Z" fill="#EEF5FF" stroke="#FCFCFC" stroke-width="2"/>
<path id="Vector_180" d="M296.341 59.4352L299.08 66.0158L291.731 73.8073L279.983 70.8328L275.584 74.36L267.681 72.2806L261.781 60.9883L268.893 54.276L278.666 49.7749L280.984 62.515L286.12 63.0677L286.463 55.171L289.439 51.4332L294.576 53.3021L292.943 59.2246L296.341 59.4352Z" fill="#EEF5FF" stroke="#FCFCFC" stroke-width="2"/>
<path id="Vector_181" d="M298.896 484.832L298.659 485.411V490.044L289.202 498.046L283.829 503.521L278.929 499.783L276.084 491.834L285.014 478.936H285.04L298.896 484.832Z" fill="#FCC33C" stroke="#FCFCFC" stroke-width="2"/>
<path id="Vector_182" d="M295.287 376.068L297.658 378.884L296.288 380.858L294.312 378.226L291.389 379.805L290.019 377.068L295.287 376.068Z" fill="#EEF5FF" stroke="#FCFCFC" stroke-width="2"/>
<path id="Vector_183" d="M297.105 413.656L292.995 415.551L288.886 412.498L294.26 411.708L297.105 413.656Z" fill="#FCC33C" stroke="#FCFCFC" stroke-width="2"/>
<path id="Vector_184" d="M288.28 445.927L294.707 453.008L288.438 455.824L285.145 452.034L277.401 454.324L274.345 452.771L269.946 450.534L276.743 448.086L288.28 445.927Z" fill="#FCC33C" stroke="#FCFCFC" stroke-width="2"/>
<path id="Vector_185" d="M281.642 94.4178L275.584 110.317L279.535 122.714L275.268 131.164L260.227 123.267L250.085 126.452L239.97 124.689L234.596 118.266L231.804 114.949L232.805 108.685L246.503 112.528L248.61 110.553L234.333 104.526L234.754 97.4976L257.487 82.5728L268.234 88.6269L266.601 100.998L268.893 101.341L273.845 87.4161L281.642 94.4178Z" fill="#EEF5FF" stroke="#FCFCFC" stroke-width="2"/>
<path id="Vector_186" d="M280.43 35.9819L276.743 47.4059L268.366 49.7749L265.811 46.9057L260.279 51.6701L253.035 47.1426L253.378 43.826L273.713 36.2978L280.43 35.9819Z" fill="#EEF5FF" stroke="#FCFCFC" stroke-width="2"/>
<path id="Vector_187" d="M276.743 448.086L269.946 450.534L259.305 445.111L257.513 441.426L268.182 442.163L276.743 448.086Z" fill="#FCC33C" stroke="#FCFCFC" stroke-width="2"/>
<path id="Vector_188" d="M270.658 429.818L268.182 442.163L257.513 441.426L253.536 433.266L267.997 426.817C269.472 428.476 270.658 429.818 270.658 429.818Z" fill="#FCC33C" stroke="#FCFCFC" stroke-width="2"/>
<path id="Vector_189" d="M267.997 426.817L253.536 433.266L245.133 429.713L249.137 420.895L249.426 420.289C249.426 420.289 262.255 419.447 262.597 420.289C262.782 420.79 265.732 424.211 267.997 426.817Z" fill="#FCC33C" stroke="#FCFCFC" stroke-width="2"/>
<path id="Vector_190" d="M259.779 400.548L253.272 412.945L248.478 414.34L241.577 414.893L240.207 411.077L245.291 400.363L259.779 400.548Z" fill="#FCC33C" stroke="#FCFCFC" stroke-width="2"/>
<path id="Vector_191" d="M255.617 70.7278L256.302 77.2295L242.894 83.231L231.909 93.7599L222.69 94.418L220.161 84.8893L234.754 71.1753L236.071 66.0161L255.617 70.7278Z" fill="#EEF5FF" stroke="#FCFCFC" stroke-width="2"/>
<path id="Vector_192" d="M253.272 412.945L249.427 420.289L249.137 420.895L249.005 420.842L248.478 414.34L253.272 412.945Z" fill="#EEF5FF" stroke="#FCFCFC" stroke-width="2"/>
<path id="Vector_193" d="M249.137 420.895L245.133 429.713L236.335 425.975L242.551 420.816L240.26 417.868L241.577 414.893L248.478 414.34L249.005 420.842L249.137 420.895Z" fill="#F54242" stroke="#FCFCFC" stroke-width="2"/>
<path id="MEX" d="M240.26 417.868L242.551 420.816L236.335 425.975L226.378 421.763L221.267 424.238L187.84 406.444L189.5 399.231L162.157 354.141L157.231 351.851L158.048 359.563L172.852 389.176L168.268 389.518L153.28 370.092L149.329 344.586L158.206 345.428L170.56 353.483H188.999L199.378 366.96L204.646 362.696L209.414 363.196L219.792 379.805L217.316 397.915L225.219 411.076H240.207L241.577 414.893L240.26 417.868Z" fill="#FCC33C" stroke="#FCFCFC" stroke-width="2"/>
<path id="USA" d="M160.524 92.2858L114.031 174.78L89.402 158.381L70.8049 168.41L69.962 175.807L36.8771 194.733L1 205.42V201.629L49.2313 179.755L53.3405 169.884L43.1464 165.12L39.1952 140.587L52.5239 128.426H67.3279L71.121 116.581L55.1581 117.582L54.3152 103.736L71.121 98.4716L75.8888 106.052L85.1084 103.736L76.3893 78.914L125.121 61.9624L160.524 92.2858Z" fill="#5398F5" stroke="#FCFCFC" stroke-width="2"/>
</g>
<defs>
<pattern id="pattern0_257_6460" patternUnits="userSpaceOnUse" viewBox="1090 6950 88 60" width="25.255461991828209%" height="20.37221552420138%" patternContentUnits="objectBoundingBox">
<g id="pattern source">
<circle id="Ellipse 2" cx="1102.5" cy="6965.5" r="12.5" fill="#FFA0A0"/>
<circle id="Ellipse 4" cx="1123.5" cy="6997.5" r="12.5" fill="#FFA0A0"/>
<circle id="Ellipse 3" cx="1144.5" cy="6962.5" r="12.5" fill="#FFA0A0"/>
<circle id="Ellipse 5" cx="1165.5" cy="6994.5" r="12.5" fill="#FFA0A0"/>
</g>
</pattern><pattern id="pattern1_257_6460" patternUnits="userSpaceOnUse" viewBox="1090 6950 88 60" width="3.1672434980132307%" height="4.0320037695956596%" patternContentUnits="objectBoundingBox">
<g id="pattern source">
<circle id="Ellipse 2" cx="1102.5" cy="6965.5" r="12.5" fill="#FFA0A0"/>
<circle id="Ellipse 4" cx="1123.5" cy="6997.5" r="12.5" fill="#FFA0A0"/>
<circle id="Ellipse 3" cx="1144.5" cy="6962.5" r="12.5" fill="#FFA0A0"/>
<circle id="Ellipse 5" cx="1165.5" cy="6994.5" r="12.5" fill="#FFA0A0"/>
</g>
</pattern><pattern id="pattern2_257_6460" patternUnits="userSpaceOnUse" viewBox="1090 6950 88 60" width="62.704185208309063%" height="20.954887309451252%" patternContentUnits="objectBoundingBox">
<g id="pattern source">
<circle id="Ellipse 2" cx="1102.5" cy="6965.5" r="12.5" fill="#FFA0A0"/>
<circle id="Ellipse 4" cx="1123.5" cy="6997.5" r="12.5" fill="#FFA0A0"/>
<circle id="Ellipse 3" cx="1144.5" cy="6962.5" r="12.5" fill="#FFA0A0"/>
<circle id="Ellipse 5" cx="1165.5" cy="6994.5" r="12.5" fill="#FFA0A0"/>
</g>
</pattern><pattern id="pattern3_257_6460" patternUnits="userSpaceOnUse" viewBox="1090 6950 88 60" width="108.15344380937894%" height="57.625947565096347%" patternContentUnits="objectBoundingBox">
<g id="pattern source">
<circle id="Ellipse 2" cx="1102.5" cy="6965.5" r="12.5" fill="#FFA0A0"/>
<circle id="Ellipse 4" cx="1123.5" cy="6997.5" r="12.5" fill="#FFA0A0"/>
<circle id="Ellipse 3" cx="1144.5" cy="6962.5" r="12.5" fill="#FFA0A0"/>
<circle id="Ellipse 5" cx="1165.5" cy="6994.5" r="12.5" fill="#FFA0A0"/>
</g>
</pattern><pattern id="pattern4_257_6460" patternUnits="userSpaceOnUse" viewBox="1090 6950 88 60" width="95.298436950086398%" height="65.023259583485824%" patternContentUnits="objectBoundingBox">
<g id="pattern source">
<circle id="Ellipse 2" cx="1102.5" cy="6965.5" r="12.5" fill="#FFA0A0"/>
<circle id="Ellipse 4" cx="1123.5" cy="6997.5" r="12.5" fill="#FFA0A0"/>
<circle id="Ellipse 3" cx="1144.5" cy="6962.5" r="12.5" fill="#FFA0A0"/>
<circle id="Ellipse 5" cx="1165.5" cy="6994.5" r="12.5" fill="#FFA0A0"/>
</g>
</pattern><pattern id="pattern5_257_6460" patternUnits="userSpaceOnUse" viewBox="1090 6950 88 60" width="113.2454223558031%" height="61.329853598441687%" patternContentUnits="objectBoundingBox">
<g id="pattern source">
<circle id="Ellipse 2" cx="1102.5" cy="6965.5" r="12.5" fill="#FFA0A0"/>
<circle id="Ellipse 4" cx="1123.5" cy="6997.5" r="12.5" fill="#FFA0A0"/>
<circle id="Ellipse 3" cx="1144.5" cy="6962.5" r="12.5" fill="#FFA0A0"/>
<circle id="Ellipse 5" cx="1165.5" cy="6994.5" r="12.5" fill="#FFA0A0"/>
</g>
</pattern><pattern id="pattern6_257_6460" patternUnits="userSpaceOnUse" viewBox="1090 6950 88 60" width="45.17904311013686%" height="16.877693702938721%" patternContentUnits="objectBoundingBox">
<g id="pattern source">
<circle id="Ellipse 2" cx="1102.5" cy="6965.5" r="12.5" fill="#FFA0A0"/>
<circle id="Ellipse 4" cx="1123.5" cy="6997.5" r="12.5" fill="#FFA0A0"/>
<circle id="Ellipse 3" cx="1144.5" cy="6962.5" r="12.5" fill="#FFA0A0"/>
<circle id="Ellipse 5" cx="1165.5" cy="6994.5" r="12.5" fill="#FFA0A0"/>
</g>
</pattern><pattern id="pattern7_257_6460" patternUnits="userSpaceOnUse" viewBox="1090 6950 88 60" width="145.95476059543097%" height="68.382775985508772%" patternContentUnits="objectBoundingBox">
<g id="pattern source">
<circle id="Ellipse 2" cx="1102.5" cy="6965.5" r="12.5" fill="#FFA0A0"/>
<circle id="Ellipse 4" cx="1123.5" cy="6997.5" r="12.5" fill="#FFA0A0"/>
<circle id="Ellipse 3" cx="1144.5" cy="6962.5" r="12.5" fill="#FFA0A0"/>
<circle id="Ellipse 5" cx="1165.5" cy="6994.5" r="12.5" fill="#FFA0A0"/>
</g>
</pattern><pattern id="pattern8_257_6460" patternUnits="userSpaceOnUse" viewBox="1090 6950 88 60" width="137.60493866640863%" height="56.12814024524728%" patternContentUnits="objectBoundingBox">
<g id="pattern source">
<circle id="Ellipse 2" cx="1102.5" cy="6965.5" r="12.5" fill="#FFA0A0"/>
<circle id="Ellipse 4" cx="1123.5" cy="6997.5" r="12.5" fill="#FFA0A0"/>
<circle id="Ellipse 3" cx="1144.5" cy="6962.5" r="12.5" fill="#FFA0A0"/>
<circle id="Ellipse 5" cx="1165.5" cy="6994.5" r="12.5" fill="#FFA0A0"/>
</g>
</pattern><pattern id="pattern9_257_6460" patternUnits="userSpaceOnUse" viewBox="1090 6950 88 60" width="83.751184707944148%" height="72.876847843818894%" patternContentUnits="objectBoundingBox">
<g id="pattern source">
<circle id="Ellipse 2" cx="1102.5" cy="6965.5" r="12.5" fill="#FFA0A0"/>
<circle id="Ellipse 4" cx="1123.5" cy="6997.5" r="12.5" fill="#FFA0A0"/>
<circle id="Ellipse 3" cx="1144.5" cy="6962.5" r="12.5" fill="#FFA0A0"/>
<circle id="Ellipse 5" cx="1165.5" cy="6994.5" r="12.5" fill="#FFA0A0"/>
</g>
</pattern><pattern id="pattern10_257_6460" patternUnits="userSpaceOnUse" viewBox="1090 6950 88 60" width="21.376933293603425%" height="14.892809805527724%" patternContentUnits="objectBoundingBox">
<g id="pattern source">
<circle id="Ellipse 2" cx="1102.5" cy="6965.5" r="12.5" fill="#FFA0A0"/>
<circle id="Ellipse 4" cx="1123.5" cy="6997.5" r="12.5" fill="#FFA0A0"/>
<circle id="Ellipse 3" cx="1144.5" cy="6962.5" r="12.5" fill="#FFA0A0"/>
<circle id="Ellipse 5" cx="1165.5" cy="6994.5" r="12.5" fill="#FFA0A0"/>
</g>
</pattern></defs>
</svg>
