<svg width="22" height="22" viewBox="0 0 22 22" fill="none" xmlns="http://www.w3.org/2000/svg">
<path d="M11 12.9165L4.29278 19.6237C4.04182 19.8746 3.72243 20.0001 3.3346 20.0001C2.94677 20.0001 2.62738 19.8746 2.37643 19.6237C2.12547 19.3727 2 19.0534 2 18.6655C2 18.2777 2.12547 17.9583 2.37643 17.7073L9.08365 11.0001L2.37643 4.2929C2.12547 4.04195 2 3.72256 2 3.33472C2 2.94689 2.12547 2.6275 2.37643 2.37655C2.62738 2.1256 2.94677 2.00012 3.3346 2.00012C3.72243 2.00012 4.04182 2.1256 4.29278 2.37655L11 9.08377L17.7072 2.37655C17.9582 2.1256 18.2776 2.00012 18.6654 2.00012C19.0532 2.00012 19.3726 2.1256 19.6236 2.37655C19.8745 2.6275 20 2.94689 20 3.33472C20 3.72256 19.8745 4.04195 19.6236 4.2929L12.9163 11.0001L19.6236 17.7073C19.8745 17.9583 20 18.2777 20 18.6655C20 19.0534 19.8745 19.3727 19.6236 19.6237C19.3726 19.8746 19.0532 20.0001 18.6654 20.0001C18.2776 20.0001 17.9582 19.8746 17.7072 19.6237L11 12.9165Z" fill="#8A8A8A"/>
</svg>
