<svg width="26" height="26" viewBox="0 0 26 26" fill="none" xmlns="http://www.w3.org/2000/svg">
<path d="M8.04806 21.2727V9.39378L13.4507 3.9569C13.6758 3.72846 13.942 3.59505 14.2493 3.55667C14.5573 3.5189 14.8538 3.57616 15.139 3.72846C15.4241 3.88075 15.6342 4.09396 15.7693 4.36809C15.9043 4.64222 15.9344 4.92396 15.8593 5.21332L14.8463 9.39378H20.6541C21.1344 9.39378 21.5546 9.57653 21.9147 9.94204C22.2749 10.3075 22.455 10.734 22.455 11.2213V13.0488C22.455 13.1554 22.44 13.2697 22.41 13.3915C22.38 13.5133 22.3499 13.6275 22.3199 13.7341L19.6186 20.1762C19.4836 20.4808 19.2585 20.7397 18.9433 20.9529C18.6281 21.1661 18.298 21.2727 17.9528 21.2727H8.04806ZM9.84893 10.1705V19.4452H17.9528L20.6541 13.0488V11.2213H12.5502L13.7658 6.19561L9.84893 10.1705ZM5.34676 21.2727C4.85153 21.2727 4.42772 21.0939 4.07535 20.7363C3.72238 20.3781 3.5459 19.9477 3.5459 19.4452V11.2213C3.5459 10.7187 3.72238 10.2884 4.07535 9.93016C4.42772 9.57257 4.85153 9.39378 5.34676 9.39378H8.04806V11.2213H5.34676V19.4452H8.04806V21.2727H5.34676Z" fill="#8A8A8A"/>
</svg>
