<svg width="47" height="47" viewBox="0 0 47 47" fill="none" xmlns="http://www.w3.org/2000/svg">
<path d="M23.4997 0.58313C10.8497 0.58313 0.583008 10.8498 0.583008 23.4998C0.583008 36.1498 10.8497 46.4165 23.4997 46.4165C36.1497 46.4165 46.4163 36.1498 46.4163 23.4998C46.4163 10.8498 36.1497 0.58313 23.4997 0.58313ZM23.4997 9.7498C27.9226 9.7498 31.5205 13.3477 31.5205 17.7706C31.5205 22.1935 27.9226 25.7915 23.4997 25.7915C19.0768 25.7915 15.4788 22.1935 15.4788 17.7706C15.4788 13.3477 19.0768 9.7498 23.4997 9.7498ZM23.4997 41.8331C18.8476 41.8331 13.3476 39.954 9.42884 35.2331C13.3018 32.2081 18.183 30.3748 23.4997 30.3748C28.8163 30.3748 33.6976 32.2081 37.5705 35.2331C33.6518 39.954 28.1518 41.8331 23.4997 41.8331Z" fill="#B3B3B3"/>
</svg>
